<svg xmlns="http://www.w3.org/2000/svg" class="icon" version="1" viewBox="0 0 1024 1024">
  <path fill="#ce4040" d="M438 584a17 17 0 0 0-4 21 13 13 0 0 0 19 2 18 18 0 0 0 6-22 14 14 0 0 0-21-1zm-53 14a41 41 0 0 0-37 39c0 17 17 30 39 27s38-19 38-36-16-32-40-30zM512 0a512 512 0 1 0 512 512A512 512 0 0 0 512 0zm230 632c-46 98-199 146-313 138-108-9-246-44-261-175 0 0-7-59 50-136 0 0 82-115 178-148s108 23 108 56c-5 27-15 44 21 32 0 0 95-44 134-5 31 32 5 75 5 75s-13 15 14 20 111 44 64 143zm-93-273a19 19 0 0 1 0-37s116-22 102 103a6 6 0 0 1 0 2 18 18 0 0 1-18 15 19 19 0 0 1-19-18s18-83-65-65zm196 89c-3 21-13 28-26 28-15 0-27-4-27-19a79 79 0 0 1 5-26c2-5 14-39-8-90-41-69-124-70-134-66a123 123 0 0 1-24 6 27 27 0 0 1-27-28 28 28 0 0 1 19-26 2 2 0 0 1 1-1 30 30 0 0 1 3-3c11-2 52-13 92-3 72 17 170 100 126 228zm-407 17c-113 6-204 66-204 141s91 132 204 127 204-76 204-151-92-122-204-117zm76 190c-34 44-103 66-169 30a59 59 0 0 1-30-51s-13-106 100-119 134 95 99 140z"/>
</svg>
